<?xml version="1.0" encoding="utf-8"?>
<!-- Generator: Adobe Illustrator 25.2.1, SVG Export Plug-In . SVG Version: 6.00 Build 0)  -->
<svg version="1.1" id="Layer_1" xmlns="http://www.w3.org/2000/svg" xmlns:xlink="http://www.w3.org/1999/xlink" x="0px" y="0px"
	 viewBox="0 0 351 266" style="enable-background:new 0 0 351 266;" xml:space="preserve">
<style type="text/css">
	.st0{clip-path:url(#SVGID_2_);}
	.st1{fill:#FFFFFF;}
	.st2{fill:#0C6653;}
	.st3{opacity:0.3;clip-path:url(#SVGID_4_);}
	.st4{fill:#131313;}
	.st5{opacity:0.3;clip-path:url(#SVGID_6_);}
	.st6{opacity:0.3;clip-path:url(#SVGID_8_);}
</style>
<g>
	<g>
		<defs>
			<rect id="SVGID_1_" x="33" y="27" width="90" height="184"/>
		</defs>
		<clipPath id="SVGID_2_">
			<use xlink:href="#SVGID_1_"  style="overflow:visible;"/>
		</clipPath>
		<g class="st0">
			<g>
				<path class="st1" d="M66.7,54c0,0,0.5-2.5,3-3.1C69.7,50.9,66.5,50.7,66.7,54z"/>
			</g>
			<g>
				<path class="st1" d="M59.6,80.5c-1.4-1-9.4-5.5-9.4-5.5c-5.3-2.3-11.1-3.7-17.2-4V27c32.8,0.7,61.4,18.7,77.2,45.3l-38,22
					C68.9,88.9,64.7,84.2,59.6,80.5z"/>
			</g>
			<g>
				<path class="st2" d="M59.6,158.3c2.9-2.1,5.5-4.6,7.9-7.3c3.1-3.6,8.2-4.5,12.2-2.2l21.5,12.5c5,2.9,6.4,9.6,2.9,14.3
					c-14.3,18.8-35.6,31.9-60.1,35.3c-5.8,0.8-11-3.7-11-9.6v-25c0-4.6,3.2-8.5,7.6-9.5c3.2-0.7,6.3-1.6,9.2-2.9
					c0.2-0.1,0.5-0.2,0.7-0.3C52.1,162.8,58.8,159.3,59.6,158.3z"/>
			</g>
			<g>
				<path class="st2" d="M78.9,113.9c-0.4-3.3-1.1-6.5-2.1-9.6c-1.3-3.8,0.3-8,3.8-10.1l23.7-13.7c4.4-2.6,10.1-0.6,12,4.2
					c4.3,10.7,6.7,22.5,6.7,34.7s-2.4,24-6.7,34.7c-1.9,4.8-7.6,6.8-12,4.2l-23.7-13.7c-3.5-2-5-6.2-3.8-10.1c1-2.9,1.7-6,2-9.2
					c0-0.3,0.1-0.6,0.2-0.9C80,120.1,78.9,113.9,78.9,113.9z"/>
			</g>
			<g>
				<path class="st2" d="M33,37.2v25.4c0,4.5,3.1,8.4,7.4,9.3c3.2,0.6,6.3,1.6,9.3,2.9c0.3,0.1,0.6,0.3,0.9,0.4c1.7,1,7.8,4.4,9,5.3
					c2.9,2.2,5.6,4.7,8,7.4c3,3.5,8,4.4,11.9,2.1l21.9-12.7c4.9-2.9,6.2-9.4,2.8-13.9C89.8,44.5,68.4,31.3,43.8,27.9
					C38.1,27.1,33,31.5,33,37.2z"/>
			</g>
		</g>
	</g>
</g>
<g>
	<g>
		<defs>
			<rect id="SVGID_3_" x="104" y="15" width="43" height="23"/>
		</defs>
		<clipPath id="SVGID_4_">
			<use xlink:href="#SVGID_3_"  style="overflow:visible;"/>
		</clipPath>
		<g class="st3">
			<g>
				<polygon class="st4" points="105.2,38.3 103.8,36.8 124.5,16.4 145.4,16.4 145.4,18.4 125.3,18.4 				"/>
			</g>
			<g>
				<path class="st4" d="M146.5,17.4c0,1-0.8,1.9-1.9,1.9c-1.1,0-1.9-0.8-1.9-1.9c0-1,0.8-1.9,1.9-1.9S146.5,16.3,146.5,17.4z"/>
				<path class="st4" d="M144.6,19.7c-1.3,0-2.4-1.1-2.4-2.4s1.1-2.4,2.4-2.4c1.3,0,2.4,1.1,2.4,2.4S145.9,19.7,144.6,19.7z
					 M144.6,16c-0.8,0-1.4,0.6-1.4,1.4s0.6,1.4,1.4,1.4c0.8,0,1.4-0.6,1.4-1.4S145.4,16,144.6,16z"/>
			</g>
		</g>
	</g>
</g>
<g>
	<g>
		<defs>
			<rect id="SVGID_5_" x="137" y="114" width="42" height="5"/>
		</defs>
		<clipPath id="SVGID_6_">
			<use xlink:href="#SVGID_5_"  style="overflow:visible;"/>
		</clipPath>
		<g class="st5">
			<g>
				<rect x="137" y="115.5" class="st4" width="40.4" height="2"/>
			</g>
			<g>
				<path class="st4" d="M176.6,119c1.3,0,2.4-1.1,2.4-2.5s-1.1-2.5-2.4-2.5s-2.4,1.1-2.4,2.5C174.3,117.9,175.3,119,176.6,119z"/>
			</g>
		</g>
	</g>
</g>
<g>
	<g>
		<defs>
			<rect id="SVGID_7_" x="102" y="203" width="43" height="23"/>
		</defs>
		<clipPath id="SVGID_8_">
			<use xlink:href="#SVGID_7_"  style="overflow:visible;"/>
		</clipPath>
		<g class="st6">
			<g>
				<polygon class="st4" points="143.4,224.7 122.5,224.7 101.8,204.2 103.2,202.7 123.3,222.7 143.4,222.7 				"/>
			</g>
			<g>
				<path class="st4" d="M145,223.6c0-1.3-1.1-2.3-2.4-2.3c-1.3,0-2.4,1.1-2.4,2.3c0,1.3,1.1,2.4,2.4,2.4S145,224.9,145,223.6z"/>
			</g>
		</g>
	</g>
</g>
<g>
	<path d="M7.6,123.4v-9.3h2v9.3H7.6z"/>
	<path d="M16,123.4v-0.9c-0.5,0.7-1.3,1-2.1,1c-1.7,0-3-1.3-3-3.5s1.3-3.5,3-3.5c0.8,0,1.6,0.3,2.1,1v-3.4h1.8v9.3H16z M16,121.3
		v-2.4c-0.3-0.4-0.9-0.8-1.5-0.8c-1,0-1.7,0.8-1.7,2s0.7,2,1.7,2C15.1,122,15.7,121.7,16,121.3z"/>
	<path d="M19.2,120.1c0-2,1.4-3.5,3.5-3.5c2,0,3.4,1.5,3.4,3.7v0.4h-5c0.1,0.9,0.8,1.6,1.9,1.6c0.6,0,1.4-0.3,1.8-0.7l0.8,1.1
		c-0.7,0.6-1.7,0.9-2.8,0.9C20.7,123.6,19.2,122.2,19.2,120.1z M22.6,117.9c-1.1,0-1.6,0.8-1.7,1.5h3.3
		C24.3,118.8,23.8,117.9,22.6,117.9z"/>
	<path d="M31.4,123.4v-0.7c-0.5,0.5-1.3,0.9-2.1,0.9c-1.1,0-2.3-0.7-2.3-2.2c0-1.6,1.3-2.2,2.3-2.2c0.9,0,1.7,0.3,2.1,0.8v-0.9
		c0-0.7-0.6-1.1-1.5-1.1c-0.7,0-1.4,0.3-2,0.8l-0.7-1.2c0.8-0.7,1.9-1.1,2.9-1.1c1.5,0,2.9,0.6,2.9,2.6v4.4h-1.6V123.4z M31.4,121.8
		V121c-0.3-0.4-0.9-0.6-1.4-0.6c-0.7,0-1.3,0.4-1.3,1s0.6,1,1.3,1C30.5,122.4,31.1,122.2,31.4,121.8z"/>
	<path d="M34.9,123.4v-9.3h1.8v9.3H34.9z"/>
	<path d="M42.4,123.4v-5.2h-1.1v-1.6h1.1v-0.4c0-1.4,0.9-2.3,2.3-2.3c0.6,0,1.3,0.2,1.8,0.6l-0.7,1c-0.2-0.2-0.4-0.3-0.7-0.3
		c-0.5,0-0.8,0.3-0.8,1v0.4h1.4v1.6h-1.4v5.2C44.3,123.4,42.4,123.4,42.4,123.4z"/>
	<path d="M46.2,120.1c0-1.9,1.3-3.5,3.6-3.5c2.2,0,3.6,1.6,3.6,3.5s-1.3,3.6-3.6,3.6C47.5,123.6,46.2,122,46.2,120.1z M51.5,120.1
		c0-1-0.6-2-1.7-2c-1.1,0-1.7,0.9-1.7,2s0.6,2,1.7,2C50.8,122,51.5,121.1,51.5,120.1z"/>
	<path d="M54.6,123.4v-6.8h1.8v0.9c0.5-0.6,1.3-1.1,2.2-1.1v1.7c-0.1,0-0.3,0-0.5,0c-0.6,0-1.4,0.3-1.7,0.8v4.5H54.6z"/>
	<path d="M59.4,117.7c0-0.6,0.5-1.1,1.1-1.1s1.1,0.5,1.1,1.1s-0.5,1.1-1.1,1.1S59.4,118.3,59.4,117.7z M59.4,122.5
		c0-0.6,0.5-1.1,1.1-1.1s1.1,0.5,1.1,1.1s-0.5,1.1-1.1,1.1S59.4,123.1,59.4,122.5z"/>
</g>
<g>
	<path d="M158.5,22.2v-7.6h-2.7v-1.7h7.4v1.7h-2.7v7.6H158.5z"/>
	<path d="M163.5,22.2v-6.8h1.8v0.9c0.5-0.6,1.3-1.1,2.2-1.1V17c-0.1,0-0.3,0-0.5,0c-0.6,0-1.4,0.3-1.7,0.8v4.5L163.5,22.2
		L163.5,22.2z"/>
	<path d="M172.6,22.2v-0.7c-0.5,0.5-1.3,0.9-2.1,0.9c-1.1,0-2.3-0.7-2.3-2.2c0-1.6,1.3-2.2,2.3-2.2c0.9,0,1.7,0.3,2.1,0.8v-0.9
		c0-0.7-0.6-1.1-1.5-1.1c-0.7,0-1.4,0.3-2,0.8l-0.7-1.2c0.8-0.7,1.9-1.1,2.9-1.1c1.5,0,2.9,0.6,2.9,2.6v4.4L172.6,22.2L172.6,22.2z
		 M172.6,20.6v-0.8c-0.3-0.4-0.9-0.6-1.4-0.6c-0.7,0-1.3,0.4-1.3,1s0.6,1,1.3,1C171.7,21.1,172.3,20.9,172.6,20.6z"/>
	<path d="M180.8,22.2v-0.9c-0.5,0.7-1.3,1-2.1,1c-1.7,0-3-1.3-3-3.5s1.3-3.5,3-3.5c0.8,0,1.6,0.3,2.1,1v-3.4h1.8v9.3H180.8z
		 M180.8,20v-2.4c-0.3-0.4-0.9-0.8-1.5-0.8c-1,0-1.7,0.8-1.7,2s0.7,2,1.7,2C179.8,20.8,180.5,20.4,180.8,20z"/>
	<path d="M184.1,13.6c0-0.6,0.5-1,1.1-1s1.1,0.5,1.1,1s-0.5,1.1-1.1,1.1C184.6,14.7,184.1,14.2,184.1,13.6z M184.3,22.2v-6.8h1.8
		v6.8H184.3z"/>
	<path d="M188.2,20.5V17h-1.1v-1.6h1.1v-1.8h1.8v1.8h1.4V17H190v3c0,0.4,0.2,0.7,0.6,0.7c0.3,0,0.5-0.1,0.6-0.2l0.4,1.3
		c-0.3,0.2-0.7,0.4-1.5,0.4C188.9,22.3,188.2,21.7,188.2,20.5z"/>
	<path d="M192.4,13.6c0-0.6,0.5-1,1.1-1s1.1,0.5,1.1,1s-0.5,1.1-1.1,1.1C192.9,14.7,192.4,14.2,192.4,13.6z M192.6,22.2v-6.8h1.8
		v6.8H192.6z"/>
	<path d="M195.7,18.8c0-1.9,1.3-3.5,3.6-3.5c2.2,0,3.6,1.6,3.6,3.5s-1.3,3.6-3.6,3.6C197,22.3,195.7,20.7,195.7,18.8z M201,18.8
		c0-1-0.6-2-1.7-2c-1.1,0-1.7,0.9-1.7,2s0.6,2,1.7,2C200.3,20.8,201,19.9,201,18.8z"/>
	<path d="M208.7,22.2v-4.1c0-0.9-0.5-1.3-1.2-1.3s-1.2,0.4-1.5,0.8v4.5h-1.8v-6.8h1.8v0.9c0.4-0.5,1.3-1,2.4-1
		c1.5,0,2.2,0.8,2.2,2.2v4.8H208.7z"/>
	<path d="M216.3,22.2v-0.7c-0.5,0.5-1.3,0.9-2.1,0.9c-1.1,0-2.3-0.7-2.3-2.2c0-1.6,1.3-2.2,2.3-2.2c0.9,0,1.7,0.3,2.1,0.8v-0.9
		c0-0.7-0.6-1.1-1.5-1.1c-0.7,0-1.4,0.3-2,0.8l-0.7-1.2c0.8-0.7,1.9-1.1,2.9-1.1c1.5,0,2.9,0.6,2.9,2.6v4.4L216.3,22.2L216.3,22.2z
		 M216.3,20.6v-0.8c-0.3-0.4-0.9-0.6-1.4-0.6c-0.7,0-1.3,0.4-1.3,1s0.6,1,1.3,1C215.4,21.1,216,20.9,216.3,20.6z"/>
	<path d="M219.8,22.2v-9.3h1.8v9.3H219.8z"/>
	<path d="M222.5,22.5l3.3-9.9h1.3l-3.3,9.9H222.5z"/>
	<path d="M227.5,17.5c0-2.8,2.1-4.8,4.9-4.8c2.8,0,4.9,2,4.9,4.8s-2.1,4.8-4.9,4.8S227.5,20.3,227.5,17.5z M235.2,17.5
		c0-1.7-1.1-3.1-2.8-3.1s-2.8,1.3-2.8,3.1c0,1.7,1.1,3.1,2.8,3.1C234.1,20.6,235.2,19.3,235.2,17.5z"/>
	<path d="M239,22.2V17h-1.1v-1.6h1.1V15c0-1.4,0.9-2.3,2.3-2.3c0.6,0,1.3,0.2,1.8,0.6l-0.7,1c-0.2-0.2-0.4-0.3-0.7-0.3
		c-0.5,0-0.8,0.3-0.8,1v0.4h1.4V17h-1.4v5.2H239z M243.6,22.2V17h-1.1v-1.6h1.1V15c0-1.5,1-2.3,2.3-2.3c0.5,0,1,0.1,1.3,0.3
		l-0.4,1.3c-0.1-0.1-0.3-0.2-0.6-0.2c-0.5,0-0.8,0.3-0.8,1v0.4h1.4V17h-1.4v5.2H243.6z M247.8,22.2v-9.3h1.8v9.3H247.8z"/>
	<path d="M251.1,13.6c0-0.6,0.5-1,1.1-1s1.1,0.5,1.1,1s-0.5,1.1-1.1,1.1C251.6,14.7,251.1,14.2,251.1,13.6z M251.3,22.2v-6.8h1.8
		v6.8H251.3z"/>
	<path d="M259.4,22.2v-4.1c0-0.9-0.5-1.3-1.2-1.3s-1.2,0.4-1.5,0.8v4.5h-1.8v-6.8h1.8v0.9c0.4-0.5,1.3-1,2.4-1
		c1.5,0,2.2,0.8,2.2,2.2v4.8H259.4z"/>
	<path d="M262.5,18.8c0-2,1.4-3.5,3.5-3.5c2,0,3.4,1.5,3.4,3.7v0.4h-5c0.1,0.9,0.8,1.6,1.9,1.6c0.6,0,1.4-0.3,1.8-0.7l0.8,1.1
		c-0.7,0.6-1.7,0.9-2.8,0.9C264.1,22.3,262.5,21,262.5,18.8z M266,16.7c-1.1,0-1.6,0.8-1.7,1.5h3.3C267.6,17.5,267.2,16.7,266,16.7z
		"/>
	<path d="M274.3,22.2v-9.3h2v7.6h3.9v1.7H274.3z"/>
	<path d="M281,18.8c0-1.9,1.3-3.5,3.6-3.5c2.2,0,3.6,1.6,3.6,3.5s-1.3,3.6-3.6,3.6C282.3,22.3,281,20.7,281,18.8z M286.3,18.8
		c0-1-0.6-2-1.7-2s-1.7,0.9-1.7,2s0.6,2,1.7,2C285.6,20.8,286.3,19.9,286.3,18.8z"/>
	<path d="M293.5,22.2v-0.7c-0.5,0.5-1.3,0.9-2.1,0.9c-1.1,0-2.3-0.7-2.3-2.2c0-1.6,1.3-2.2,2.3-2.2c0.9,0,1.7,0.3,2.1,0.8v-0.9
		c0-0.7-0.6-1.1-1.5-1.1c-0.7,0-1.4,0.3-2,0.8l-0.7-1.2c0.8-0.7,1.9-1.1,2.9-1.1c1.5,0,2.9,0.6,2.9,2.6v4.4L293.5,22.2L293.5,22.2z
		 M293.5,20.6v-0.8c-0.3-0.4-0.9-0.6-1.4-0.6c-0.7,0-1.3,0.4-1.3,1s0.6,1,1.3,1C292.6,21.1,293.2,20.9,293.5,20.6z"/>
	<path d="M301.6,22.2v-4.1c0-0.9-0.5-1.3-1.2-1.3s-1.2,0.4-1.5,0.8v4.5H297v-6.8h1.8v0.9c0.4-0.5,1.3-1,2.4-1c1.5,0,2.2,0.8,2.2,2.2
		v4.8H301.6z"/>
	<path d="M160.4,38.9v-0.7c-0.5,0.5-1.3,0.9-2.1,0.9c-1.1,0-2.3-0.7-2.3-2.2c0-1.6,1.3-2.2,2.3-2.2c0.9,0,1.7,0.3,2.1,0.8v-0.9
		c0-0.7-0.6-1.1-1.5-1.1c-0.7,0-1.4,0.3-2,0.8l-0.7-1.2c0.8-0.7,1.9-1.1,2.9-1.1c1.5,0,2.9,0.6,2.9,2.6V39L160.4,38.9L160.4,38.9z
		 M160.4,37.3v-0.8c-0.3-0.4-0.9-0.6-1.4-0.6c-0.7,0-1.3,0.4-1.3,1s0.6,1,1.3,1C159.5,37.9,160.1,37.7,160.4,37.3z"/>
	<path d="M163.8,40.7l0.8-1.3c0.5,0.6,1.3,0.8,2.1,0.8s1.9-0.4,1.9-1.7v-0.7c-0.5,0.7-1.3,1.1-2.1,1.1c-1.7,0-3-1.2-3-3.4
		s1.3-3.4,3-3.4c0.8,0,1.5,0.3,2.1,1v-0.9h1.8v6.3c0,2.6-2,3.2-3.6,3.2C165.5,41.7,164.6,41.4,163.8,40.7z M168.5,36.6v-2.2
		c-0.3-0.4-0.9-0.8-1.5-0.8c-1,0-1.7,0.7-1.7,1.9s0.7,1.9,1.7,1.9C167.6,37.3,168.2,37,168.5,36.6z"/>
	<path d="M171.7,35.6c0-2,1.4-3.5,3.5-3.5c2,0,3.4,1.5,3.4,3.7v0.4h-5c0.1,0.9,0.8,1.6,1.9,1.6c0.6,0,1.4-0.3,1.8-0.7l0.8,1.1
		c-0.7,0.6-1.7,0.9-2.8,0.9C173.2,39.1,171.7,37.7,171.7,35.6z M175.2,33.4c-1.1,0-1.6,0.8-1.7,1.5h3.3
		C176.8,34.3,176.3,33.4,175.2,33.4z"/>
	<path d="M184.4,38.9v-4.1c0-0.9-0.5-1.3-1.2-1.3s-1.2,0.4-1.5,0.8v4.5h-1.8V32h1.8v0.9c0.4-0.5,1.3-1,2.4-1c1.5,0,2.2,0.8,2.2,2.2
		v4.8C186.3,38.9,184.4,38.9,184.4,38.9z"/>
	<path d="M188.3,37.3v-3.5h-1.1v-1.6h1.1v-1.8h1.8v1.8h1.4v1.6H190v3c0,0.4,0.2,0.7,0.6,0.7c0.3,0,0.5-0.1,0.6-0.2l0.4,1.3
		c-0.3,0.2-0.7,0.4-1.5,0.4C188.9,39.1,188.3,38.5,188.3,37.3z"/>
	<path d="M192,38.1l0.8-1.2c0.5,0.5,1.5,0.9,2.3,0.9s1.1-0.3,1.1-0.7c0-1.1-4-0.2-4-2.9c0-1.1,1-2.1,2.8-2.1c1.1,0,2.1,0.4,2.7,0.9
		l-0.7,1.2c-0.4-0.4-1.2-0.8-2-0.8c-0.6,0-1.1,0.3-1.1,0.7c0,1,4,0.2,4,2.9c0,1.2-1,2.2-2.9,2.2C193.9,39.1,192.8,38.7,192,38.1z"/>
	<path d="M208.8,38.9l-1.4-4.6l-1.4,4.6h-1.9l-2.1-6.8h1.8l1.3,4.5l1.5-4.5h1.6l1.5,4.5l1.3-4.5h1.8l-2.1,6.8H208.8z"/>
	<path d="M217.7,38.9v-0.7c-0.5,0.5-1.3,0.9-2.1,0.9c-1.1,0-2.3-0.7-2.3-2.2c0-1.6,1.3-2.2,2.3-2.2c0.9,0,1.7,0.3,2.1,0.8v-0.9
		c0-0.7-0.6-1.1-1.5-1.1c-0.7,0-1.4,0.3-2,0.8l-0.7-1.2c0.8-0.7,1.9-1.1,2.9-1.1c1.5,0,2.9,0.6,2.9,2.6V39L217.7,38.9L217.7,38.9z
		 M217.7,37.3v-0.8c-0.3-0.4-0.9-0.6-1.4-0.6c-0.7,0-1.3,0.4-1.3,1s0.6,1,1.3,1C216.8,37.9,217.4,37.7,217.7,37.3z"/>
	<path d="M225.8,38.9v-4.1c0-0.9-0.5-1.3-1.2-1.3s-1.2,0.4-1.5,0.8v4.5h-1.8V32h1.8v0.9c0.4-0.5,1.3-1,2.4-1c1.5,0,2.2,0.8,2.2,2.2
		v4.8C227.7,38.9,225.8,38.9,225.8,38.9z"/>
	<path d="M229.7,37.3v-3.5h-1.1v-1.6h1.1v-1.8h1.8v1.8h1.4v1.6h-1.4v3c0,0.4,0.2,0.7,0.6,0.7c0.3,0,0.5-0.1,0.6-0.2l0.4,1.3
		c-0.3,0.2-0.7,0.4-1.5,0.4C230.3,39.1,229.7,38.5,229.7,37.3z"/>
	<path d="M233.8,30.4c0-0.6,0.5-1,1.1-1s1.1,0.5,1.1,1s-0.5,1.1-1.1,1.1S233.8,31,233.8,30.4z M234,38.9v-6.8h1.8v6.8H234z"/>
	<path d="M242.1,38.9v-4.1c0-0.9-0.5-1.3-1.2-1.3s-1.2,0.4-1.5,0.8v4.5h-1.8V32h1.8v0.9c0.4-0.5,1.3-1,2.4-1c1.5,0,2.2,0.8,2.2,2.2
		v4.8C244,38.9,242.1,38.9,242.1,38.9z"/>
	<path d="M245.5,40.7l0.8-1.3c0.5,0.6,1.3,0.8,2.1,0.8s1.9-0.4,1.9-1.7v-0.7c-0.5,0.7-1.3,1.1-2.1,1.1c-1.7,0-3-1.2-3-3.4
		s1.3-3.4,3-3.4c0.8,0,1.5,0.3,2.1,1v-0.9h1.8v6.3c0,2.6-2,3.2-3.6,3.2C247.3,41.7,246.4,41.4,245.5,40.7z M250.3,36.6v-2.2
		c-0.3-0.4-0.9-0.8-1.5-0.8c-1,0-1.7,0.7-1.7,1.9s0.7,1.9,1.7,1.9C249.3,37.3,250,37,250.3,36.6z"/>
	<path d="M257.3,40.7l0.8-1.3c0.5,0.6,1.3,0.8,2.1,0.8s1.9-0.4,1.9-1.7v-0.7c-0.5,0.7-1.3,1.1-2.1,1.1c-1.7,0-3-1.2-3-3.4
		s1.3-3.4,3-3.4c0.8,0,1.5,0.3,2.1,1v-0.9h1.8v6.3c0,2.6-2,3.2-3.6,3.2C259,41.7,258.1,41.4,257.3,40.7z M262,36.6v-2.2
		c-0.3-0.4-0.9-0.8-1.5-0.8c-1,0-1.7,0.7-1.7,1.9s0.7,1.9,1.7,1.9C261.1,37.3,261.7,37,262,36.6z"/>
	<path d="M265.6,38.9v-6.8h1.8V33c0.5-0.6,1.3-1.1,2.2-1.1v1.7c-0.1,0-0.3,0-0.5,0c-0.6,0-1.4,0.3-1.7,0.8v4.5H265.6z"/>
	<path d="M270.2,35.6c0-1.9,1.3-3.5,3.6-3.5c2.2,0,3.6,1.6,3.6,3.5s-1.3,3.6-3.6,3.6C271.5,39.1,270.2,37.5,270.2,35.6z M275.5,35.6
		c0-1-0.6-2-1.7-2s-1.7,0.9-1.7,2s0.6,2,1.7,2S275.5,36.6,275.5,35.6z"/>
	<path d="M284.6,38.9l-1.4-4.6l-1.4,4.6h-1.9l-2.1-6.8h1.8l1.3,4.5l1.5-4.5h1.6l1.5,4.5l1.3-4.5h1.8l-2.1,6.8H284.6z"/>
	<path d="M289.7,37.3v-3.5h-1.1v-1.6h1.1v-1.8h1.8v1.8h1.4v1.6h-1.4v3c0,0.4,0.2,0.7,0.6,0.7c0.3,0,0.5-0.1,0.6-0.2l0.4,1.3
		c-0.3,0.2-0.7,0.4-1.5,0.4C290.4,39.1,289.7,38.5,289.7,37.3z"/>
	<path d="M298.7,38.9v-4.1c0-0.9-0.5-1.2-1.3-1.2c-0.7,0-1.2,0.4-1.5,0.8v4.5h-1.8v-9.3h1.8v3.5c0.4-0.5,1.3-1,2.4-1
		c1.5,0,2.2,0.8,2.2,2.1V39L298.7,38.9L298.7,38.9z"/>
</g>
<g>
	<path d="M193.6,110.9l-1.6-6.4l-1.6,6.4h-2.1l-2.7-9.3h2.2l1.6,6.7l1.8-6.7h1.6l1.8,6.7l1.6-6.7h2.2l-2.7,9.3H193.6z"/>
	<path d="M198.2,107.5c0-1.9,1.3-3.5,3.6-3.5c2.2,0,3.6,1.6,3.6,3.5s-1.3,3.6-3.6,3.6C199.6,111,198.2,109.4,198.2,107.5z
		 M203.5,107.5c0-1-0.6-2-1.7-2c-1.1,0-1.7,0.9-1.7,2s0.6,2,1.7,2S203.5,108.5,203.5,107.5z"/>
	<path d="M206.7,110.9v-6.8h1.8v0.9c0.5-0.6,1.3-1.1,2.2-1.1v1.7c-0.1,0-0.3,0-0.5,0c-0.6,0-1.4,0.3-1.7,0.8v4.5H206.7z"/>
	<path d="M216.1,110.9l-1.8-2.6l-0.8,0.9v1.7h-1.8v-9.3h1.8v5.6l2.6-3h2.2l-2.7,3.1l2.8,3.7L216.1,110.9L216.1,110.9z"/>
	<path d="M219,102.3c0-0.6,0.5-1,1.1-1s1.1,0.5,1.1,1s-0.5,1.1-1.1,1.1S219,102.9,219,102.3z M219.2,110.9v-6.8h1.8v6.8H219.2z"/>
	<path d="M227.3,110.9v-4.1c0-0.9-0.5-1.3-1.2-1.3s-1.2,0.4-1.5,0.8v4.5h-1.8V104h1.8v0.9c0.4-0.5,1.3-1,2.4-1
		c1.5,0,2.2,0.8,2.2,2.2v4.8H227.3z"/>
	<path d="M230.7,112.6l0.8-1.3c0.5,0.6,1.3,0.8,2.1,0.8s1.9-0.4,1.9-1.7v-0.7c-0.5,0.7-1.3,1.1-2.1,1.1c-1.7,0-3-1.2-3-3.4
		c0-2.2,1.3-3.4,3-3.4c0.8,0,1.5,0.3,2.1,1v-0.9h1.8v6.3c0,2.6-2,3.2-3.6,3.2C232.4,113.6,231.5,113.3,230.7,112.6z M235.5,108.5
		v-2.2c-0.3-0.4-0.9-0.8-1.5-0.8c-1,0-1.7,0.7-1.7,1.9s0.7,1.9,1.7,1.9C234.5,109.2,235.2,108.9,235.5,108.5z"/>
	<path d="M244.4,110v3.4h-1.8v-9.3h1.8v0.9c0.5-0.7,1.3-1,2.1-1c1.7,0,3,1.3,3,3.5s-1.3,3.6-3,3.6C245.6,111,244.9,110.7,244.4,110z
		 M247.6,107.5c0-1.2-0.7-2-1.7-2c-0.6,0-1.2,0.3-1.5,0.8v2.4c0.3,0.4,1,0.8,1.5,0.8C246.9,109.5,247.6,108.7,247.6,107.5z"/>
	<path d="M250.7,110.9v-6.8h1.8v0.9c0.5-0.6,1.3-1.1,2.2-1.1v1.7c-0.1,0-0.3,0-0.5,0c-0.6,0-1.4,0.3-1.7,0.8v4.5H250.7z"/>
	<path d="M255.3,107.5c0-1.9,1.3-3.5,3.6-3.5c2.2,0,3.6,1.6,3.6,3.5s-1.3,3.6-3.6,3.6C256.7,111,255.3,109.4,255.3,107.5z
		 M260.6,107.5c0-1-0.6-2-1.7-2s-1.7,0.9-1.7,2s0.6,2,1.7,2S260.6,108.5,260.6,107.5z"/>
	<path d="M264.2,110.9v-5.2h-1.1v-1.6h1.1v-0.4c0-1.4,0.9-2.3,2.3-2.3c0.6,0,1.3,0.2,1.8,0.6l-0.7,1c-0.2-0.2-0.4-0.3-0.7-0.3
		c-0.5,0-0.8,0.3-0.8,1v0.4h1.4v1.6H266v5.2C266,110.9,264.2,110.9,264.2,110.9z"/>
	<path d="M267.9,107.5c0-2,1.4-3.5,3.5-3.5c2,0,3.4,1.5,3.4,3.7v0.4h-5c0.1,0.9,0.8,1.6,1.9,1.6c0.6,0,1.4-0.3,1.8-0.7l0.8,1.1
		c-0.7,0.6-1.7,0.9-2.8,0.9C269.5,111,267.9,109.6,267.9,107.5z M271.4,105.4c-1.1,0-1.6,0.8-1.7,1.5h3.3
		C273,106.2,272.6,105.4,271.4,105.4z"/>
	<path d="M275.5,110l0.8-1.2c0.5,0.5,1.5,0.9,2.3,0.9s1.1-0.3,1.1-0.7c0-1.1-4-0.2-4-2.9c0-1.1,1-2.1,2.8-2.1c1.1,0,2.1,0.4,2.7,0.9
		l-0.7,1.2c-0.4-0.4-1.2-0.8-2-0.8c-0.6,0-1.1,0.3-1.1,0.7c0,1,4,0.2,4,2.9c0,1.2-1,2.2-2.9,2.2C277.3,111,276.2,110.6,275.5,110z"
		/>
	<path d="M282.2,110l0.8-1.2c0.5,0.5,1.5,0.9,2.3,0.9s1.1-0.3,1.1-0.7c0-1.1-4-0.2-4-2.9c0-1.1,1-2.1,2.8-2.1c1.1,0,2.1,0.4,2.7,0.9
		l-0.7,1.2c-0.4-0.4-1.2-0.8-2-0.8c-0.6,0-1.1,0.3-1.1,0.7c0,1,4,0.2,4,2.9c0,1.2-1,2.2-2.9,2.2C284,111,282.9,110.6,282.2,110z"/>
	<path d="M289.2,102.3c0-0.6,0.5-1,1.1-1s1.1,0.5,1.1,1s-0.5,1.1-1.1,1.1S289.2,102.9,289.2,102.3z M289.4,110.9v-6.8h1.8v6.8H289.4
		z"/>
	<path d="M292.5,107.5c0-1.9,1.3-3.5,3.6-3.5c2.2,0,3.6,1.6,3.6,3.5s-1.3,3.6-3.6,3.6C293.9,111,292.5,109.4,292.5,107.5z
		 M297.8,107.5c0-1-0.6-2-1.7-2s-1.7,0.9-1.7,2s0.6,2,1.7,2C297.2,109.5,297.8,108.5,297.8,107.5z"/>
	<path d="M305.5,110.9v-4.1c0-0.9-0.5-1.3-1.2-1.3s-1.2,0.4-1.5,0.8v4.5H301V104h1.8v0.9c0.4-0.5,1.3-1,2.4-1c1.5,0,2.2,0.8,2.2,2.2
		v4.8H305.5z"/>
	<path d="M313.1,110.9v-0.7c-0.5,0.5-1.3,0.9-2.1,0.9c-1.1,0-2.3-0.7-2.3-2.2c0-1.6,1.3-2.2,2.3-2.2c0.9,0,1.7,0.3,2.1,0.8v-0.9
		c0-0.7-0.6-1.1-1.5-1.1c-0.7,0-1.4,0.3-2,0.8L309,105c0.8-0.7,1.9-1.1,2.9-1.1c1.5,0,2.9,0.6,2.9,2.6v4.4H313.1z M313.1,109.2v-0.8
		c-0.3-0.4-0.9-0.6-1.4-0.6c-0.7,0-1.3,0.4-1.3,1s0.6,1,1.3,1C312.3,109.8,312.8,109.6,313.1,109.2z"/>
	<path d="M316.7,110.9v-9.3h1.8v9.3H316.7z"/>
	<path d="M319.6,110l0.8-1.2c0.5,0.5,1.5,0.9,2.3,0.9s1.1-0.3,1.1-0.7c0-1.1-4-0.2-4-2.9c0-1.1,1-2.1,2.8-2.1c1.1,0,2.1,0.4,2.7,0.9
		l-0.7,1.2c-0.4-0.4-1.2-0.8-2-0.8c-0.6,0-1.1,0.3-1.1,0.7c0,1,4,0.2,4,2.9c0,1.2-1,2.2-2.9,2.2C321.4,111,320.3,110.6,319.6,110z"
		/>
	<path d="M185.8,126.8l0.8-1.2c0.5,0.5,1.5,0.9,2.3,0.9s1.1-0.3,1.1-0.7c0-1.1-4-0.2-4-2.9c0-1.1,1-2.1,2.8-2.1
		c1.1,0,2.1,0.4,2.7,0.9l-0.7,1.2c-0.4-0.4-1.2-0.8-2-0.8c-0.6,0-1.1,0.3-1.1,0.7c0,1,4,0.2,4,2.9c0,1.2-1,2.2-2.9,2.2
		C187.7,127.8,186.5,127.4,185.8,126.8z"/>
	<path d="M192.6,124.3c0-2,1.4-3.5,3.5-3.5c2,0,3.4,1.5,3.4,3.7v0.4h-5c0.1,0.9,0.8,1.6,1.9,1.6c0.6,0,1.4-0.3,1.8-0.7l0.8,1.1
		c-0.7,0.6-1.7,0.9-2.8,0.9C194.2,127.8,192.6,126.4,192.6,124.3z M196.1,122.1c-1.1,0-1.6,0.8-1.7,1.5h3.3
		C197.8,123,197.3,122.1,196.1,122.1z"/>
	<path d="M200.4,124.3c0-2,1.4-3.5,3.5-3.5c2,0,3.4,1.5,3.4,3.7v0.4h-5c0.1,0.9,0.8,1.6,1.9,1.6c0.6,0,1.4-0.3,1.8-0.7l0.8,1.1
		c-0.7,0.6-1.7,0.9-2.8,0.9C201.9,127.8,200.4,126.4,200.4,124.3z M203.9,122.1c-1.1,0-1.6,0.8-1.7,1.5h3.3
		C205.5,123,205,122.1,203.9,122.1z"/>
	<path d="M212.9,127.6l-1.8-2.6l-0.8,0.9v1.7h-1.8v-9.3h1.8v5.6l2.6-3h2.2l-2.7,3.1l2.8,3.7L212.9,127.6L212.9,127.6z"/>
	<path d="M215.8,119.1c0-0.6,0.5-1,1.1-1s1.1,0.5,1.1,1s-0.5,1.1-1.1,1.1S215.8,119.7,215.8,119.1z M216,127.6v-6.8h1.8v6.8H216z"/>
	<path d="M224.1,127.6v-4.1c0-0.9-0.5-1.3-1.2-1.3s-1.2,0.4-1.5,0.8v4.5h-1.8v-6.8h1.8v0.9c0.4-0.5,1.3-1,2.4-1
		c1.5,0,2.2,0.8,2.2,2.2v4.8H224.1z"/>
	<path d="M227.5,129.4l0.8-1.3c0.5,0.6,1.3,0.8,2.1,0.8s1.9-0.4,1.9-1.7v-0.7c-0.5,0.7-1.3,1.1-2.1,1.1c-1.7,0-3-1.2-3-3.4
		c0-2.2,1.3-3.4,3-3.4c0.8,0,1.5,0.3,2.1,1v-0.9h1.8v6.3c0,2.6-2,3.2-3.6,3.2C229.2,130.4,228.3,130.1,227.5,129.4z M232.3,125.2
		V123c-0.3-0.4-0.9-0.8-1.5-0.8c-1,0-1.7,0.7-1.7,1.9s0.7,1.9,1.7,1.9C231.3,126,232,125.7,232.3,125.2z"/>
	<path d="M239,124.3c0-2,1.4-3.5,3.5-3.5c2,0,3.4,1.5,3.4,3.7v0.4h-5c0.1,0.9,0.8,1.6,1.9,1.6c0.6,0,1.4-0.3,1.8-0.7l0.8,1.1
		c-0.7,0.6-1.7,0.9-2.8,0.9C240.5,127.8,239,126.4,239,124.3z M242.4,122.1c-1.1,0-1.6,0.8-1.7,1.5h3.3
		C244.1,123,243.6,122.1,242.4,122.1z"/>
	<path d="M251.7,127.6v-4.1c0-0.9-0.5-1.3-1.2-1.3s-1.2,0.4-1.5,0.8v4.5h-1.8v-6.8h1.8v0.9c0.4-0.5,1.3-1,2.4-1
		c1.5,0,2.2,0.8,2.2,2.2v4.8H251.7z"/>
	<path d="M255.6,126v-3.5h-1.1v-1.6h1.1V119h1.8v1.8h1.4v1.6h-1.4v3c0,0.4,0.2,0.7,0.6,0.7c0.3,0,0.5-0.1,0.6-0.2l0.4,1.3
		c-0.3,0.2-0.7,0.4-1.5,0.4C256.2,127.8,255.6,127.2,255.6,126z"/>
	<path d="M259.9,127.6v-6.8h1.8v0.9c0.5-0.6,1.3-1.1,2.2-1.1v1.7c-0.1,0-0.3,0-0.5,0c-0.6,0-1.4,0.3-1.7,0.8v4.5H259.9z"/>
	<path d="M264.5,124.3c0-2,1.4-3.5,3.5-3.5c2,0,3.4,1.5,3.4,3.7v0.4h-5c0.1,0.9,0.8,1.6,1.9,1.6c0.6,0,1.4-0.3,1.8-0.7l0.8,1.1
		c-0.7,0.6-1.7,0.9-2.8,0.9C266.1,127.8,264.5,126.4,264.5,124.3z M268,122.1c-1.1,0-1.6,0.8-1.7,1.5h3.3
		C269.6,123,269.2,122.1,268,122.1z"/>
	<path d="M274.5,126.8v3.4h-1.8v-9.3h1.8v0.9c0.5-0.7,1.3-1,2.1-1c1.7,0,3,1.3,3,3.5c0,2.3-1.3,3.6-3,3.6
		C275.7,127.8,275,127.5,274.5,126.8z M277.7,124.3c0-1.2-0.7-2-1.7-2c-0.6,0-1.2,0.3-1.5,0.8v2.4c0.3,0.4,1,0.8,1.5,0.8
		C277,126.2,277.7,125.4,277.7,124.3z"/>
	<path d="M280.8,127.6v-6.8h1.8v0.9c0.5-0.6,1.3-1.1,2.2-1.1v1.7c-0.1,0-0.3,0-0.5,0c-0.6,0-1.4,0.3-1.7,0.8v4.5H280.8z"/>
	<path d="M285.4,124.3c0-2,1.4-3.5,3.5-3.5c2,0,3.4,1.5,3.4,3.7v0.4h-5c0.1,0.9,0.8,1.6,1.9,1.6c0.6,0,1.4-0.3,1.8-0.7l0.8,1.1
		c-0.7,0.6-1.7,0.9-2.8,0.9C287,127.8,285.4,126.4,285.4,124.3z M288.9,122.1c-1.1,0-1.6,0.8-1.7,1.5h3.3
		C290.5,123,290.1,122.1,288.9,122.1z"/>
	<path d="M298.2,127.6v-4.1c0-0.9-0.5-1.3-1.2-1.3s-1.2,0.4-1.5,0.8v4.5h-1.8v-6.8h1.8v0.9c0.4-0.5,1.3-1,2.4-1
		c1.5,0,2.2,0.8,2.2,2.2v4.8H298.2z"/>
	<path d="M301.3,124.3c0-2,1.4-3.5,3.5-3.5c2,0,3.4,1.5,3.4,3.7v0.4h-5c0.1,0.9,0.8,1.6,1.9,1.6c0.6,0,1.4-0.3,1.8-0.7l0.8,1.1
		c-0.7,0.6-1.7,0.9-2.8,0.9C302.8,127.8,301.3,126.4,301.3,124.3z M304.7,122.1c-1.1,0-1.6,0.8-1.7,1.5h3.3
		C306.4,123,305.9,122.1,304.7,122.1z"/>
	<path d="M314,127.6v-0.9c-0.5,0.5-1.3,1-2.4,1c-1.5,0-2.2-0.8-2.2-2.1v-4.8h1.8v4.1c0,0.9,0.5,1.2,1.2,1.2s1.2-0.4,1.5-0.8v-4.6
		h1.8v6.8H314V127.6z"/>
	<path d="M317.5,127.6v-6.8h1.8v0.9c0.5-0.6,1.3-1.1,2.2-1.1v1.7c-0.1,0-0.3,0-0.5,0c-0.6,0-1.4,0.3-1.7,0.8v4.5H317.5z"/>
	<path d="M322,126.8l0.8-1.2c0.5,0.5,1.5,0.9,2.3,0.9s1.1-0.3,1.1-0.7c0-1.1-4-0.2-4-2.9c0-1.1,1-2.1,2.8-2.1c1.1,0,2.1,0.4,2.7,0.9
		l-0.7,1.2c-0.4-0.4-1.2-0.8-2-0.8c-0.6,0-1.1,0.3-1.1,0.7c0,1,4,0.2,4,2.9c0,1.2-1,2.2-2.9,2.2C323.8,127.8,322.7,127.4,322,126.8z
		"/>
	<path d="M333.8,127.6v-4.1c0-0.9-0.5-1.2-1.3-1.2c-0.7,0-1.2,0.4-1.5,0.8v4.5h-1.8v-9.3h1.8v3.5c0.4-0.5,1.3-1,2.4-1
		c1.5,0,2.2,0.8,2.2,2.1v4.8h-1.8V127.6z"/>
	<path d="M337.1,119.1c0-0.6,0.5-1,1.1-1s1.1,0.5,1.1,1s-0.5,1.1-1.1,1.1S337.1,119.7,337.1,119.1z M337.3,127.6v-6.8h1.8v6.8H337.3
		z"/>
	<path d="M342.6,126.8v3.4h-1.8v-9.3h1.8v0.9c0.5-0.7,1.3-1,2.1-1c1.7,0,3,1.3,3,3.5c0,2.3-1.3,3.6-3,3.6
		C343.9,127.8,343.2,127.5,342.6,126.8z M345.9,124.3c0-1.2-0.7-2-1.7-2c-0.6,0-1.2,0.3-1.5,0.8v2.4c0.3,0.4,1,0.8,1.5,0.8
		C345.2,126.2,345.9,125.4,345.9,124.3z"/>
</g>
<g>
	<path d="M156.7,228.3V219h4.9c1.8,0,2.7,1.1,2.7,2.4c0,1.2-0.7,2-1.6,2.1c1,0.2,1.8,1.1,1.8,2.3c0,1.4-0.9,2.5-2.7,2.5H156.7z
		 M162.3,221.7c0-0.6-0.4-1-1.1-1h-2.5v2h2.5C161.9,222.7,162.3,222.2,162.3,221.7z M162.5,225.5c0-0.6-0.4-1.1-1.2-1.1h-2.6v2.2
		h2.6C162,226.5,162.5,226.1,162.5,225.5z"/>
	<path d="M165.5,224.9c0-2,1.4-3.5,3.5-3.5c2,0,3.4,1.5,3.4,3.7v0.4h-5c0.1,0.9,0.8,1.6,1.9,1.6c0.6,0,1.4-0.3,1.8-0.7l0.8,1.1
		c-0.7,0.6-1.7,0.9-2.8,0.9C167.1,228.4,165.5,227,165.5,224.9z M169,222.7c-1.1,0-1.6,0.8-1.7,1.5h3.3
		C170.6,223.6,170.2,222.7,169,222.7z"/>
	<path d="M173.5,230l0.8-1.3c0.5,0.6,1.3,0.8,2.1,0.8c0.9,0,1.9-0.4,1.9-1.7v-0.7c-0.5,0.7-1.3,1.1-2.1,1.1c-1.7,0-3-1.2-3-3.4
		s1.3-3.4,3-3.4c0.8,0,1.5,0.3,2.1,1v-0.9h1.8v6.3c0,2.6-2,3.2-3.6,3.2C175.3,231,174.4,230.7,173.5,230z M178.3,225.9v-2.2
		c-0.3-0.4-0.9-0.8-1.5-0.8c-1,0-1.7,0.7-1.7,1.9s0.7,1.9,1.7,1.9C177.4,226.6,178,226.3,178.3,225.9z"/>
	<path d="M181.7,219.7c0-0.6,0.5-1,1.1-1s1.1,0.5,1.1,1s-0.5,1.1-1.1,1.1S181.7,220.3,181.7,219.7z M181.8,228.3v-6.8h1.8v6.8H181.8
		z"/>
	<path d="M189.9,228.3v-4.1c0-0.9-0.5-1.3-1.2-1.3s-1.2,0.4-1.5,0.8v4.5h-1.8v-6.8h1.8v0.9c0.4-0.5,1.3-1,2.4-1
		c1.5,0,2.2,0.8,2.2,2.2v4.8L189.9,228.3L189.9,228.3z"/>
	<path d="M198,228.3v-4.1c0-0.9-0.5-1.3-1.2-1.3s-1.2,0.4-1.5,0.8v4.5h-1.8v-6.8h1.8v0.9c0.4-0.5,1.3-1,2.4-1c1.5,0,2.2,0.8,2.2,2.2
		v4.8L198,228.3L198,228.3z"/>
	<path d="M201.1,224.9c0-2,1.4-3.5,3.5-3.5c2,0,3.4,1.5,3.4,3.7v0.4h-5c0.1,0.9,0.8,1.6,1.9,1.6c0.6,0,1.4-0.3,1.8-0.7l0.8,1.1
		c-0.7,0.6-1.7,0.9-2.8,0.9C202.7,228.4,201.1,227,201.1,224.9z M204.6,222.7c-1.1,0-1.6,0.8-1.7,1.5h3.3
		C206.2,223.6,205.8,222.7,204.6,222.7z"/>
	<path d="M209.3,228.3v-6.8h1.8v0.9c0.5-0.6,1.3-1.1,2.2-1.1v1.7c-0.1,0-0.3,0-0.5,0c-0.6,0-1.4,0.3-1.7,0.8v4.5L209.3,228.3
		L209.3,228.3z"/>
	<path d="M213.7,227.4l0.8-1.2c0.5,0.5,1.5,0.9,2.3,0.9s1.1-0.3,1.1-0.7c0-1.1-4-0.2-4-2.9c0-1.1,1-2.1,2.8-2.1
		c1.1,0,2.1,0.4,2.7,0.9l-0.7,1.2c-0.4-0.4-1.2-0.8-2-0.8c-0.6,0-1.1,0.3-1.1,0.7c0,1,4,0.2,4,2.9c0,1.2-1,2.2-2.9,2.2
		C215.6,228.4,214.5,228,213.7,227.4z"/>
	<path d="M230.5,228.3l-1.4-4.6l-1.4,4.6h-1.9l-2.1-6.8h1.8l1.3,4.5l1.5-4.5h1.6l1.5,4.5l1.3-4.5h1.8l-2.1,6.8H230.5z"/>
	<path d="M239.4,228.3v-0.7c-0.5,0.5-1.3,0.9-2.1,0.9c-1.1,0-2.3-0.7-2.3-2.2c0-1.6,1.3-2.2,2.3-2.2c0.9,0,1.7,0.3,2.1,0.8V224
		c0-0.7-0.6-1.1-1.5-1.1c-0.7,0-1.4,0.3-2,0.8l-0.7-1.2c0.8-0.7,1.9-1.1,2.9-1.1c1.5,0,2.9,0.6,2.9,2.6v4.4h-1.6V228.3z
		 M239.4,226.6v-0.8c-0.3-0.4-0.9-0.6-1.4-0.6c-0.7,0-1.3,0.4-1.3,1s0.6,1,1.3,1C238.5,227.2,239.1,227,239.4,226.6z"/>
	<path d="M247.5,228.3v-4.1c0-0.9-0.5-1.3-1.2-1.3s-1.2,0.4-1.5,0.8v4.5H243v-6.8h1.8v0.9c0.4-0.5,1.3-1,2.4-1
		c1.5,0,2.2,0.8,2.2,2.2v4.8L247.5,228.3L247.5,228.3z"/>
	<path d="M251.3,226.6v-3.5h-1.1v-1.6h1.1v-1.8h1.8v1.8h1.4v1.6h-1.4v3c0,0.4,0.2,0.7,0.6,0.7c0.3,0,0.5-0.1,0.6-0.2l0.4,1.3
		c-0.3,0.2-0.7,0.4-1.5,0.4C252,228.4,251.3,227.8,251.3,226.6z"/>
	<path d="M255.5,219.7c0-0.6,0.5-1,1.1-1s1.1,0.5,1.1,1s-0.5,1.1-1.1,1.1S255.5,220.3,255.5,219.7z M255.7,228.3v-6.8h1.8v6.8H255.7
		z"/>
	<path d="M263.8,228.3v-4.1c0-0.9-0.5-1.3-1.2-1.3s-1.2,0.4-1.5,0.8v4.5h-1.8v-6.8h1.8v0.9c0.4-0.5,1.3-1,2.4-1
		c1.5,0,2.2,0.8,2.2,2.2v4.8L263.8,228.3L263.8,228.3z"/>
	<path d="M267.2,230l0.8-1.3c0.5,0.6,1.3,0.8,2.1,0.8s1.9-0.4,1.9-1.7v-0.7c-0.5,0.7-1.3,1.1-2.1,1.1c-1.7,0-3-1.2-3-3.4
		s1.3-3.4,3-3.4c0.8,0,1.5,0.3,2.1,1v-0.9h1.8v6.3c0,2.6-2,3.2-3.6,3.2C269,231,268.1,230.7,267.2,230z M272,225.9v-2.2
		c-0.3-0.4-0.9-0.8-1.5-0.8c-1,0-1.7,0.7-1.7,1.9s0.7,1.9,1.7,1.9C271,226.6,271.7,226.3,272,225.9z"/>
	<path d="M279.5,226.6v-3.5h-1.1v-1.6h1.1v-1.8h1.8v1.8h1.4v1.6h-1.4v3c0,0.4,0.2,0.7,0.6,0.7c0.3,0,0.5-0.1,0.6-0.2l0.4,1.3
		c-0.3,0.2-0.7,0.4-1.5,0.4C280.1,228.4,279.5,227.8,279.5,226.6z"/>
	<path d="M283.4,224.9c0-1.9,1.3-3.5,3.6-3.5c2.2,0,3.6,1.6,3.6,3.5s-1.3,3.6-3.6,3.6C284.7,228.4,283.4,226.8,283.4,224.9z
		 M288.7,224.9c0-1-0.6-2-1.7-2s-1.7,0.9-1.7,2s0.6,2,1.7,2C288.1,226.8,288.7,225.9,288.7,224.9z"/>
	<path d="M295,224.9c0-2,1.4-3.5,3.5-3.5c2,0,3.4,1.5,3.4,3.7v0.4h-5c0.1,0.9,0.8,1.6,1.9,1.6c0.6,0,1.4-0.3,1.8-0.7l0.8,1.1
		c-0.7,0.6-1.7,0.9-2.8,0.9C296.5,228.4,295,227,295,224.9z M298.5,222.7c-1.1,0-1.6,0.8-1.7,1.5h3.3
		C300.1,223.6,299.7,222.7,298.5,222.7z"/>
	<path d="M307.7,228.3v-4.1c0-0.9-0.5-1.3-1.2-1.3s-1.2,0.4-1.5,0.8v4.5h-1.8v-6.8h1.8v0.9c0.4-0.5,1.3-1,2.4-1
		c1.5,0,2.2,0.8,2.2,2.2v4.8L307.7,228.3L307.7,228.3z"/>
	<path d="M311.6,226.6v-3.5h-1.1v-1.6h1.1v-1.8h1.8v1.8h1.4v1.6h-1.4v3c0,0.4,0.2,0.7,0.6,0.7c0.3,0,0.5-0.1,0.6-0.2l0.4,1.3
		c-0.3,0.2-0.7,0.4-1.5,0.4C312.3,228.4,311.6,227.8,311.6,226.6z"/>
	<path d="M315.5,224.9c0-2,1.4-3.5,3.5-3.5c2,0,3.4,1.5,3.4,3.7v0.4h-5c0.1,0.9,0.8,1.6,1.9,1.6c0.6,0,1.4-0.3,1.8-0.7l0.8,1.1
		c-0.7,0.6-1.7,0.9-2.8,0.9C317.1,228.4,315.5,227,315.5,224.9z M319,222.7c-1.1,0-1.6,0.8-1.7,1.5h3.3
		C320.7,223.6,320.2,222.7,319,222.7z"/>
	<path d="M323.7,228.3v-6.8h1.8v0.9c0.5-0.6,1.3-1.1,2.2-1.1v1.7c-0.1,0-0.3,0-0.5,0c-0.6,0-1.4,0.3-1.7,0.8v4.5L323.7,228.3
		L323.7,228.3z"/>
	<path d="M157,243.3v-3.5h-1.1v-1.6h1.1v-1.8h1.8v1.8h1.4v1.6h-1.4v3c0,0.4,0.2,0.7,0.6,0.7c0.3,0,0.5-0.1,0.6-0.2l0.4,1.3
		c-0.3,0.2-0.7,0.4-1.5,0.4C157.7,245.2,157,244.6,157,243.3z"/>
	<path d="M166,245v-4.1c0-0.9-0.5-1.2-1.3-1.2c-0.7,0-1.2,0.4-1.5,0.8v4.5h-1.8v-9.3h1.8v3.5c0.4-0.5,1.3-1,2.4-1
		c1.5,0,2.2,0.8,2.2,2.1v4.8H166V245z"/>
	<path d="M169.1,241.6c0-2,1.4-3.5,3.5-3.5c2,0,3.4,1.5,3.4,3.7v0.4h-5c0.1,0.9,0.8,1.6,1.9,1.6c0.6,0,1.4-0.3,1.8-0.7l0.8,1.1
		c-0.7,0.6-1.7,0.9-2.8,0.9C170.6,245.2,169.1,243.8,169.1,241.6z M172.6,239.5c-1.1,0-1.6,0.8-1.7,1.5h3.3
		C174.2,240.4,173.7,239.5,172.6,239.5z"/>
	<path d="M180.8,245v-9.3h1.8v3.4c0.5-0.7,1.3-1,2.1-1c1.7,0,3,1.3,3,3.6c0,2.2-1.3,3.5-3,3.5c-0.8,0-1.6-0.4-2.1-1v0.9L180.8,245
		L180.8,245z M184.1,243.6c1,0,1.7-0.8,1.7-2s-0.7-2-1.7-2c-0.6,0-1.2,0.3-1.5,0.8v2.4C182.9,243.3,183.5,243.6,184.1,243.6z"/>
	<path d="M188.6,241.6c0-1.9,1.3-3.5,3.6-3.5c2.2,0,3.6,1.6,3.6,3.5s-1.3,3.6-3.6,3.6C189.9,245.2,188.6,243.6,188.6,241.6z
		 M193.9,241.6c0-1-0.6-2-1.7-2s-1.7,0.9-1.7,2s0.6,2,1.7,2S193.9,242.7,193.9,241.6z"/>
	<path d="M196.6,241.6c0-1.9,1.3-3.5,3.6-3.5c2.2,0,3.6,1.6,3.6,3.5s-1.3,3.6-3.6,3.6C197.9,245.2,196.6,243.6,196.6,241.6z
		 M201.9,241.6c0-1-0.6-2-1.7-2c-1.1,0-1.7,0.9-1.7,2s0.6,2,1.7,2C201.3,243.6,201.9,242.7,201.9,241.6z"/>
	<path d="M213.4,245v-4.3c0-0.6-0.3-1.1-1-1.1c-0.6,0-1.1,0.4-1.4,0.8v4.6h-1.8v-4.3c0-0.6-0.3-1.1-1-1.1c-0.6,0-1.1,0.4-1.4,0.8
		v4.5H205v-6.8h1.8v0.9c0.3-0.4,1.2-1,2.2-1s1.6,0.5,1.9,1.2c0.4-0.6,1.3-1.2,2.3-1.2c1.2,0,2,0.7,2,2v4.9h-1.8V245z"/>
	<path d="M216.8,236.5c0-0.6,0.5-1,1.1-1s1.1,0.5,1.1,1s-0.5,1.1-1.1,1.1C217.3,237.5,216.8,237.1,216.8,236.5z M217,245v-6.8h1.8
		v6.8H217z"/>
	<path d="M225,245v-4.1c0-0.9-0.5-1.3-1.2-1.3s-1.2,0.4-1.5,0.8v4.5h-1.8v-6.8h1.8v0.9c0.4-0.5,1.3-1,2.4-1c1.5,0,2.2,0.8,2.2,2.2
		v4.8L225,245L225,245z"/>
	<path d="M228.4,246.8l0.8-1.3c0.5,0.6,1.3,0.8,2.1,0.8s1.9-0.4,1.9-1.7v-0.7c-0.5,0.7-1.3,1.1-2.1,1.1c-1.7,0-3-1.2-3-3.4
		s1.3-3.4,3-3.4c0.8,0,1.5,0.3,2.1,1v-0.9h1.8v6.3c0,2.6-2,3.2-3.6,3.2C230.2,247.8,229.3,247.5,228.4,246.8z M233.2,242.6v-2.2
		c-0.3-0.4-0.9-0.8-1.5-0.8c-1,0-1.7,0.7-1.7,1.9s0.7,1.9,1.7,1.9C232.3,243.4,232.9,243.1,233.2,242.6z"/>
	<path d="M240.7,245v-5.2h-1.1v-1.6h1.1v-0.4c0-1.5,1-2.3,2.3-2.3c0.5,0,1,0.1,1.3,0.3l-0.4,1.3c-0.1-0.1-0.3-0.2-0.6-0.2
		c-0.5,0-0.8,0.3-0.8,1v0.4h1.4v1.6h-1.4v5.2h-1.8V245z M244.7,236.5c0-0.6,0.5-1,1.1-1s1.1,0.5,1.1,1s-0.5,1.1-1.1,1.1
		C245.2,237.5,244.7,237.1,244.7,236.5z M244.9,245v-6.8h1.8v6.8H244.9z"/>
	<path d="M253,245v-4.1c0-0.9-0.5-1.3-1.2-1.3s-1.2,0.4-1.5,0.8v4.5h-1.8v-6.8h1.8v0.9c0.4-0.5,1.3-1,2.4-1c1.5,0,2.2,0.8,2.2,2.2
		v4.8L253,245L253,245z"/>
	<path d="M256.9,243.3v-3.5h-1.1v-1.6h1.1v-1.8h1.8v1.8h1.4v1.6h-1.4v3c0,0.4,0.2,0.7,0.6,0.7c0.3,0,0.5-0.1,0.6-0.2l0.4,1.3
		c-0.3,0.2-0.7,0.4-1.5,0.4C257.6,245.2,256.9,244.6,256.9,243.3z"/>
	<path d="M260.8,241.6c0-2,1.4-3.5,3.5-3.5c2,0,3.4,1.5,3.4,3.7v0.4h-5c0.1,0.9,0.8,1.6,1.9,1.6c0.6,0,1.4-0.3,1.8-0.7l0.8,1.1
		c-0.7,0.6-1.7,0.9-2.8,0.9C262.4,245.2,260.8,243.8,260.8,241.6z M264.3,239.5c-1.1,0-1.6,0.8-1.7,1.5h3.3
		C265.9,240.4,265.5,239.5,264.3,239.5z"/>
	<path d="M268.6,241.6c0-2.1,1.5-3.5,3.6-3.5c1.4,0,2.2,0.6,2.7,1.2l-1.2,1.1c-0.3-0.5-0.8-0.7-1.4-0.7c-1.1,0-1.8,0.8-1.8,2
		s0.8,2,1.8,2c0.6,0,1.1-0.3,1.4-0.7l1.2,1.1c-0.4,0.6-1.3,1.2-2.7,1.2C270,245.2,268.6,243.7,268.6,241.6z"/>
	<path d="M280.5,245v-4.1c0-0.9-0.5-1.2-1.3-1.2c-0.7,0-1.2,0.4-1.5,0.8v4.5H276v-9.3h1.8v3.5c0.4-0.5,1.3-1,2.4-1
		c1.5,0,2.2,0.8,2.2,2.1v4.8h-1.9V245z"/>
	<path d="M287.5,236.5c0-0.6,0.5-1,1.1-1s1.1,0.5,1.1,1s-0.5,1.1-1.1,1.1C287.9,237.5,287.5,237.1,287.5,236.5z M287.6,245v-6.8h1.8
		v6.8H287.6z"/>
	<path d="M295.7,245v-4.1c0-0.9-0.5-1.3-1.2-1.3s-1.2,0.4-1.5,0.8v4.5h-1.8v-6.8h1.8v0.9c0.4-0.5,1.3-1,2.4-1c1.5,0,2.2,0.8,2.2,2.2
		v4.8L295.7,245L295.7,245z"/>
	<path d="M303.9,245v-0.9c-0.5,0.7-1.3,1-2.1,1c-1.7,0-3-1.3-3-3.5s1.3-3.6,3-3.6c0.8,0,1.6,0.3,2.1,1v-3.4h1.8v9.3L303.9,245
		L303.9,245z M303.9,242.8v-2.4c-0.3-0.4-0.9-0.8-1.5-0.8c-1,0-1.7,0.8-1.7,2s0.7,2,1.7,2C303,243.6,303.6,243.3,303.9,242.8z"/>
	<path d="M312,245v-0.9c-0.5,0.5-1.3,1-2.4,1c-1.5,0-2.2-0.8-2.2-2.1v-4.8h1.8v4.1c0,0.9,0.5,1.2,1.2,1.2s1.2-0.4,1.5-0.8v-4.6h1.8
		v6.8H312V245z"/>
	<path d="M315,244.1l0.8-1.2c0.5,0.5,1.5,0.9,2.3,0.9s1.1-0.3,1.1-0.7c0-1.1-4-0.2-4-2.9c0-1.1,1-2.1,2.8-2.1c1.1,0,2.1,0.4,2.7,0.9
		l-0.7,1.2c-0.4-0.4-1.2-0.8-2-0.8c-0.6,0-1.1,0.3-1.1,0.7c0,1,4,0.2,4,2.9c0,1.2-1,2.2-2.9,2.2C316.8,245.2,315.7,244.8,315,244.1z
		"/>
	<path d="M322.6,243.3v-3.5h-1.1v-1.6h1.1v-1.8h1.8v1.8h1.4v1.6h-1.4v3c0,0.4,0.2,0.7,0.6,0.7c0.3,0,0.5-0.1,0.6-0.2l0.4,1.3
		c-0.3,0.2-0.7,0.4-1.5,0.4C323.2,245.2,322.6,244.6,322.6,243.3z"/>
	<path d="M326.9,245v-6.8h1.8v0.9c0.5-0.6,1.3-1.1,2.2-1.1v1.7c-0.1,0-0.3,0-0.5,0c-0.6,0-1.4,0.3-1.7,0.8v4.5L326.9,245L326.9,245z
		"/>
	<path d="M332,246.1c0.2,0.1,0.4,0.1,0.6,0.1c0.5,0,0.8-0.1,0.9-0.5l0.3-0.6l-2.7-6.8h1.9l1.8,4.7l1.8-4.7h1.9l-3.2,7.9
		c-0.5,1.3-1.4,1.6-2.6,1.6c-0.2,0-0.7,0-0.9-0.1L332,246.1z"/>
</g>
</svg>
